<svg version="1.1" id="LogoHorizontal" xmlns="http://www.w3.org/2000/svg" x="0" y="0" viewBox="0 0 500 123.75" style="enable-background:new 0 0 500 123.75" xml:space="preserve"><style>.st1{fill:#fff}</style><path d="m499.72 44.65-.06-.28c-.86-3.87-3.18-6.73-6.02-8.55.46-1.94.85-3.77 1.06-5.24 1.44-9.19-4.67-15.59-11.29-17.08-.7-.17-1.43-.25-2.17-.3l-10.55-.99c-1.66.01-3.19.3-4.57.77-.72.07-1.43.19-2.14.38-.66.17-1.36.42-2.07.72-.02-.04-.04-.09-.07-.13a27.069 27.069 0 0 0-4.24-5.56c-1.17-1.17-2.15-2.08-3.04-2.83-3.39-2.8-7.73-3.75-12.01-2.45-1.77.55-3.4 1.38-4.85 2.47a20.09 20.09 0 0 0-3.58 3.3l-.43.5-.37.55c-2.79 4.19-5.77 9.09-8.89 14.62-2.54 4.59-5.41 10.13-8.53 16.46-1.57 3.19-3.11 6.58-4.61 10.16-1.84-.19-3.76-.16-5.73.09-3.98.51-7.89 2.06-11.6 4.62-.97.67-1.93 1.4-2.87 2.21-1.23-1.4-2.57-2.64-4.02-3.71l-11.66-4.96c-3.51-.27-7.08.65-10.43 2.72-1.4-1.23-2.92-2.27-4.52-3.1-2.02-1.05-3.7-1.74-5.24-2.16-4.12-1.21-8.64-.19-11.77 2.62-1.48 1.31-2.65 2.8-3.46 4.42a18.906 18.906 0 0 0-4.7-2.77l-.23-.09c-3.42-1.32-7.31-1.73-11.25-1.22-3.53.45-7 1.73-10.35 3.8-.59-.7-1.23-1.38-1.93-2.04l-.19-.18c-3.4-3.06-6.86-3.7-9.17-3.7-1.94 0-3.89.46-5.66 1.35-1.58.8-2.94 1.9-4.02 3.24a25.808 25.808 0 0 0-4.67-3.11c-2.03-1.05-3.7-1.74-5.23-2.16-4.11-1.2-8.6-.19-11.78 2.63-.61.54-1.14 1.12-1.64 1.71-.84-.51-1.72-.95-2.66-1.34l-.19-.08c-3.42-1.33-7.21-1.76-11.3-1.23-1.6.2-3.18.58-4.75 1.12 1.55-2.52 3.04-4.83 4.43-6.89 2.01-2.96 3.76-5.37 5.22-7.17 2.1-2.58 3.42-4.4 4.25-5.87 1.92-3.34 2.58-7.15 1.92-11.08a22.85 22.85 0 0 0-2.73-7.53 27.097 27.097 0 0 0-4.26-5.59c-1.44-1.44-2.66-2.49-3.82-3.27-3.4-2.36-7.53-3.06-11.39-1.87-1.77.55-3.4 1.38-4.85 2.46-1.26.89-2.46 1.99-3.57 3.28l-.69.89c-3.26 4.68-6.59 10.11-9.92 16.17a250.42 250.42 0 0 0-4.33 8.29c-2.95-2.05-5.75-2.49-7.6-2.49-1.18 0-2.36.17-3.48.51-1.82.55-3.55 1.46-5.1 2.71-1.28 1.02-2.43 2.25-3.52 3.76l-1.08 1.61-.27.42c-.04.08-.18.29-.45.64-.62.83-1.26 1.76-1.89 2.78l-.28.47c-.97 1.75-1.75 3.84-2.36 6.38-.25 1.01-.37 2.02-.42 3.02-.28.24-.58.46-.84.72-1.7-1.07-3.18-1.88-4.53-2.48-.44-.19-.88-.37-1.33-.52 1.65-2.65 3.19-5 4.61-7 1.9-2.69 3.54-4.89 4.9-6.54 2.05-2.51 3.28-4.21 4.16-5.82 1.84-3.41 2.46-7.21 1.79-10.99-.46-2.58-1.38-5.08-2.73-7.43a26.87 26.87 0 0 0-4.26-5.57c-1.22-1.22-2.18-2.11-3.01-2.81l-.63-.49C188.79.1 184.6-.65 180.64.57c-1.77.55-3.4 1.38-4.85 2.47-1.26.89-2.46 1.99-3.57 3.28l-.4.46-.34.51c-.49.72-.99 1.47-1.49 2.23-.57-.44-1.16-.84-1.78-1.2l-.31-.17c-2.43-1.32-5.13-2.1-8.06-2.31-2.11-.15-3.73-.12-5.23.04l-.37.05c-1.66.24-3.97.7-7.27 1.45-3.63.83-7.6 2.22-12.17 4.25-4.41 1.96-9.15 4.62-14.09 7.91-2.66 1.77-5.32 3.83-7.95 6.15-1.79-1.98-4.09-3.56-6.75-4.59-3.61-1.39-7.9-1.75-12.41-1.15-.51-.3-.95-.56-1.39-.83l-.21-.13c-4.22-2.4-8.78-2.72-13.03-.96-3.67 1.51-6.35 4.29-8 8.24l-.3.81c-.14.42-.26.84-.36 1.25L50.63 2.43 38.8 39.3 0 52.91l33.2 20.92-.63 39.23L65.19 88l13.74 3.77c.1 2.83.48 5.48 1.16 7.99 1.62 5.97 4.64 10.91 8.94 14.67 3.84 3.36 8.31 5.83 13.29 7.33 4.34 1.31 8.99 1.97 13.82 1.97h.65c4.81-.06 9.5-.68 13.96-1.84.87-.22 1.68-.43 2.47-.66.93-.27 1.92-.6 2.86-.95.53-.19 1.06-.39 1.58-.6l12.32.32c.51.08 1.03.14 1.56.18l.96.04c1.19 0 2.41-.18 3.84-.57 3.67-1.06 6.52-3.84 7.82-7.48 1.56 1.77 3.46 3.23 5.65 4.32l.71.35.75.25c1.63.54 3.38.9 5.22 1.07 1.71.18 3.53.14 5.43-.12 2.14-.29 4.23-.98 6.22-2.05.46.25.93.48 1.41.7l1.01.39c1.63.54 3.39.9 5.23 1.08 1.7.18 3.52.14 5.43-.12 2.52-.34 4.96-1.23 7.27-2.65.74-.42 1.48-.9 2.2-1.41 2.06 1.61 4.51 2.74 7.23 3.31 2.2.44 3.98.51 5.7.24 1.84-.22 3.61-.69 5.27-1.37 1.16-.48 2.24-1.02 3.21-1.61.51.38 1.04.74 1.59 1.09 3.4 2.16 7.58 3.48 12.8 4.07 2.2.28 4.3.29 6.28.03 3.93-.26 7.56-1.24 10.89-2.88 1.94 1.21 4.13 1.99 6.57 2.26.62.07 1.26.11 1.89.11 3.45 0 6.88-1.11 10.18-3.32 2.36-1.58 5.07-3.65 8.29-6.34 1.05-.88 2.12-1.83 3.21-2.8.18.38.34.78.53 1.15 1.85 3.52 4.6 6.45 8.19 8.72 3.39 2.15 7.57 3.47 12.77 4.05 2.2.28 4.29.29 6.27.03 2.95-.2 5.74-.79 8.35-1.77l13.94 2.2.97.04c1.7 0 3.37-.36 5.11-1.1 3.06-1.31 5.33-3.76 6.48-6.89 1.67 1.82 3.73 3.29 6.13 4.35l.96.37c1.63.54 3.39.91 5.24 1.08 1.72.18 3.53.14 5.43-.12 2.36-.33 4.68-1.1 6.96-2.35.29-.16.57-.33.86-.5.72.51 1.47.97 2.26 1.37 3.03 1.56 6.22 2.45 9.37 2.62 3.26.22 6.59-.44 9.79-1.94a29.1 29.1 0 0 0 4.77-2.84c2.23 2.15 4.96 3.64 8.07 4.37l.41.09c1.19.23 2.53.35 4.1.35l1.1-.06c2.08-.21 4.04-.71 5.87-1.51 1.31-.58 2.54-1.28 3.66-2.09l.35-.17c.2.14.41.27.62.41 3.39 2.14 7.57 3.47 12.77 4.05 2.2.28 4.3.29 6.28.03 5.82-.39 11.01-2.31 15.45-5.7 3.38-2.58 6.3-5.28 8.69-8.01l.33-.4c.52-.66.95-1.22 1.25-1.65.26-.36.5-.7.71-1.01 1.59-2.23 2.67-3.99 3.42-5.54.99-1.62 1.83-3.16 2.53-4.61.6-1.23 1.12-2.3 1.58-3.22l.36-.8c.71-1.78 1.07-3.58 1.07-5.37 0-2.1-.46-4.09-1.37-5.9-1.02-2.04-3.12-4.76-7.37-6.2l-1.08-.36c.07-1.05.07-2.06-.01-3.1-.07-.82-.18-1.59-.31-2.33-.07-.46-.17-.92-.27-1.37.1 0 .2.01.31.01.98 0 1.97-.09 2.96-.26 4.97-.88 11.16-3.87 12.94-4.77l.87-.44.77-.58c3.33-2.51 6.78-7.8 5.48-14.45" style="fill:#0097ce"/><path class="st1" d="M452.18 50.95c-.06 2.93-2.71 2.99-2.71 2.99-3.05-.22-3.05-2.99-3.05-2.99.22-3.04 2.82-2.99 2.82-2.99s2.66-.05 2.94 2.99M470.99 46.97C469.22 54 461.53 54 461.53 54s-8.3.11-7.8-9.85c0 0 1.1-11.01 7.41-16.65 2.21-2.05 4.59-3.26 5.64-3.54 1.05-.28 1.55.33 1.55.33s.88-1.27 2.76-1.11c.78.17 2.54.88 2.38 3.98 0 3.76-2.27 9.91-2.27 9.91s-1 3.65-4.2 3.21c-1.27-.17-3.21-2.38-2.88-3.6.27-1.22.66-2.77.66-2.77s-2.66 2.71-4.04 6.2c-1.38 3.54-1.83 7.75 1.11 8.02 1.88-.17 3.37-2.88 3.87-3.43.5-.55 1.77-1.88 3.21-1.49 1.56.55 2.39 1.66 2.06 3.76M485.71 44.48c.56-.11 2.82.28 3.27 2.27.44 2.27-1.33 3.6-1.33 3.6s-6.14 3.1-9.91 3.76c-3.15.56-5.03-1.44-5.7-2.88-.72-1.44 0-4.43 0-4.43s5.37-20.86 5.7-21.52c.34-.72 2.21-1.38 3.21-1.11 0 0 3.6.72 2.93 4.76-.72 5.04-4.43 17.1-4.43 17.1s5.65-1.38 6.26-1.55M282.32 76.98c-.76 1.81-1.45 3.69-2.07 5.64-.62 1.95-1.27 4.02-1.93 6.21-.1.38-.24.95-.43 1.71s-.38 1.57-.57 2.43c-.19.85-.34 1.69-.43 2.5-.09.81-.09 1.5 0 2.07.09.95.38 1.66.86 2.14 2.38-2.76 4.78-6.07 7.21-9.92 2.43-3.86 4.68-7.74 6.78-11.64 2.09-3.9 3.93-7.52 5.5-10.85 1.57-3.33 2.74-5.81 3.5-7.43.09-.48.33-.81.72-1 .76-.38 1.62-.14 2.57.71 1.71 1.62 2.79 3.28 3.21 5 .43 1.71.55 3.24.36 4.57-.28 1.72-.81 3.29-1.57 4.72-2 3.9-4.14 7.4-6.43 10.5-2.29 3.1-4.62 5.88-7 8.35-3.14 3.24-6.17 6.07-9.07 8.5-2.91 2.43-5.36 4.31-7.35 5.64-1.71 1.14-3.28 1.62-4.71 1.43-.95-.1-1.74-.38-2.36-.86-.62-.48-1.07-.91-1.36-1.29-.66-.86-1.12-1.78-1.36-2.78-.24-1-.45-2.02-.64-3.07-.19-1.62-.09-3.5.29-5.64.38-2.14.66-3.78.86-4.93.95-3.62 1.81-6.71 2.57-9.28.38-1.33.79-2.62 1.22-3.86.43-1.24.78-2.33 1.07-3.28.38-.67.62-1.33.72-2 .47-1.52.97-2.97 1.5-4.35.52-1.38 1.02-2.59 1.5-3.64.48-1.14.91-2.24 1.29-3.29 0-.09.05-.19.14-.28 0-.09.09-.33.29-.72.19-.38.5-.76.93-1.14.43-.38.93-.48 1.5-.29.76.19 1.83.65 3.21 1.36 1.38.71 2.69 1.69 3.93 2.93.09.1.19.29.29.57.09.19.19.45.28.79.1.33.14.69.14 1.07 0 .95-.33 2.05-1 3.28 0 .09-.03.17-.07.21-.05.05-.07.12-.07.21-.09.19-.38.79-.86 1.79s-.91 1.88-1.29 2.64c-.29.76-.62 1.57-1 2.43-.39.85-.68 1.57-.87 2.14"/><path class="st1" d="M475.62 83.41c-.14-.29-.5-.52-1.07-.71-1.05-.09-1.91.19-2.57.86-.38.38-.62.76-.71 1.14-.48 1.05-1.14 2.33-2 3.85-.86 1.53-1.81 3-2.86 4.43-.1.09-.43.52-1 1.29a5.1 5.1 0 0 0-.5.57 5.1 5.1 0 0 1-.5.57c-.76.86-1.64 1.74-2.64 2.64-1 .9-2.14 1.71-3.43 2.43-1.28.71-2.69 1.26-4.21 1.64-1.52.38-3.14.48-4.85.29l-.14-.14H449c-.48 0-.91-.1-1.29-.29-1.81-.67-2.91-1.76-3.29-3.29-.38-1.52-.48-3.09-.28-4.71 4.66-.86 8.4-2.26 11.21-4.21s4.98-4.02 6.5-6.21c1.52-2.19 2.57-4.36 3.14-6.5.57-2.14.9-3.88 1-5.21.09-.76.12-1.43.07-2-.05-.57-.12-1.09-.21-1.57-.19-1.43-.64-2.78-1.36-4.07-.72-1.28-1.88-2.26-3.5-2.93-1.72-.66-3.69-.86-5.93-.57-2.23.28-4.5 1.21-6.78 2.79-2.28 1.57-4.57 3.85-6.85 6.86-2.28 3-4.33 6.93-6.14 11.78-1.05 2.78-1.83 5.35-2.35 7.71-.04.07-.08.14-.12.22-.91 1.67-1.93 3.24-3.07 4.71-1.14 1.48-2.31 2.71-3.5 3.71s-2.31 1.31-3.36.93c-.86-.29-1.38-.95-1.57-2v-.43c-.19-1.71 0-4 .57-6.86 1.05-4.57 2.24-8.9 3.57-13 1.33-4.09 2.76-7.95 4.28-11.57 2.38-5.52 4.83-10.48 7.35-14.85 2.52-4.38 4.9-8.16 7.14-11.36 2.24-3.19 4.16-5.81 5.78-7.86 1.62-2.05 2.72-3.5 3.29-4.36.67-1.24.86-2.52.57-3.85-.29-1.33-.79-2.62-1.5-3.86-.71-1.23-1.55-2.33-2.5-3.28a42.11 42.11 0 0 0-2.28-2.14c-.57-.47-1.17-.62-1.79-.43-.62.19-1.17.48-1.64.86-.57.38-1.15.91-1.71 1.57-2.66 4-5.47 8.62-8.43 13.85-2.48 4.47-5.24 9.81-8.28 15.99-3.05 6.19-5.95 13.14-8.71 20.85-.76-1.9-2.14-3.23-4.14-4-1.71-.66-3.69-.85-5.93-.57-2.24.29-4.5 1.21-6.78 2.78-2.29 1.57-4.57 3.86-6.86 6.86-2.28 3-4.33 6.93-6.14 11.78-.24.65-.46 1.28-.67 1.89-.44.89-1.01 1.95-1.71 3.18-.95 1.67-1.98 3.26-3.07 4.78-1.1 1.53-2.26 2.76-3.5 3.71-1.24.95-2.38 1.29-3.43 1-.95-.29-1.45-1.05-1.5-2.28-.05-1.24.14-2.74.57-4.5.43-1.76 1.07-3.67 1.93-5.71.86-2.05 1.74-4 2.65-5.86.9-1.85 1.74-3.49 2.5-4.93.76-1.43 1.33-2.48 1.71-3.14.57-1.05.93-1.95 1.07-2.71s.17-1.38.07-1.86a3.34 3.34 0 0 0-.71-1.57c-1.05-1.24-2.19-2.24-3.43-3-1.24-.76-2.33-1.33-3.29-1.71-1.71-.86-3.59-.64-5.64.64s-4.17 3.17-6.36 5.64c-2.19 2.48-4.35 5.31-6.5 8.49-2.14 3.19-4.12 6.36-5.93 9.5.48-1.52.95-2.95 1.43-4.28.47-1.33.95-2.66 1.43-4 .19-.57.48-1.29.86-2.14.38-.86.76-1.67 1.14-2.43.38-.76.78-1.64 1.22-2.64.43-1 .73-1.59.93-1.78 0-.09.02-.17.07-.22a.34.34 0 0 0 .07-.22c.67-1.23 1-2.33 1-3.28 0-.38-.05-.71-.14-1-.1-.28-.19-.52-.28-.71-.2-.29-.34-.48-.43-.57-1.14-1.33-2.4-2.36-3.78-3.07s-2.45-1.16-3.21-1.36c-.57-.19-1.07-.09-1.5.29-.43.38-.74.76-.93 1.14-.19.38-.28.62-.28.71-.09.1-.14.19-.14.28-.38 1.05-.81 2.15-1.29 3.28-.48 1.05-.98 2.27-1.5 3.64-.53 1.38-1.02 2.83-1.5 4.36-.38.95-.62 1.67-.71 2.14-.29.86-.64 1.9-1.07 3.14-.43 1.24-.88 2.52-1.36 3.85-.48 1.62-.98 3.43-1.5 5.43-.15.59-.3 1.2-.45 1.8-.18.34-.38.69-.58 1.05-.85 1.53-1.81 3-2.86 4.43-.09.09-.43.52-1 1.29a5.1 5.1 0 0 0-.5.57 5.1 5.1 0 0 1-.5.57c-.76.86-1.64 1.74-2.64 2.64-1 .9-2.14 1.71-3.43 2.43-1.28.71-2.69 1.26-4.21 1.64-1.52.38-3.14.48-4.85.29l-.14-.14h-.14c-.48 0-.9-.1-1.29-.29-1.81-.67-2.9-1.76-3.28-3.29-.38-1.52-.48-3.09-.29-4.71 4.66-.86 8.4-2.26 11.21-4.21 2.81-1.95 4.98-4.02 6.5-6.21 1.52-2.19 2.57-4.36 3.14-6.5.57-2.14.9-3.88 1-5.21.09-.76.12-1.43.07-2-.05-.57-.12-1.09-.21-1.57a11.5 11.5 0 0 0-1.35-4.07c-.71-1.28-1.88-2.26-3.5-2.93-1.71-.66-3.69-.86-5.93-.57-2.24.28-4.5 1.21-6.78 2.79-2.28 1.57-4.57 3.85-6.85 6.86-2.29 3-4.33 6.93-6.14 11.78-1.33 3.52-2.23 6.71-2.71 9.57v.14c-.29 1.91-.36 3.81-.21 5.71.14 1.9.64 3.66 1.5 5.28.95 1.81 2.4 3.33 4.36 4.57 1.95 1.24 4.68 2.05 8.21 2.43 1.43.19 2.71.19 3.86 0 3.81-.19 7.12-1.36 9.93-3.5 2.8-2.14 5.16-4.31 7.07-6.5a47.54 47.54 0 0 0-.47 4.43c-.09.19-.09.47 0 .86 0 .66.24 1.24.71 1.71.57.76 1.43 1.47 2.57 2.14 1.14.66 2.67 1.09 4.57 1.28.19 0 .45-.07.78-.21.33-.14.55-.5.64-1.07 2.19-6.1 4.54-11.45 7.07-16.07 2.52-4.62 4.93-8.5 7.21-11.64 2.57-3.71 5.24-6.86 8-9.43l.14-.14a247.69 247.69 0 0 0-3.57 9.93c-1.24 3.66-2.1 7.26-2.57 10.78-.48 3.53-.45 6.66.07 9.43.52 2.76 1.98 4.66 4.36 5.71.86.29 1.81.48 2.85.57.86.09 1.81.07 2.86-.07 1.05-.14 2.1-.5 3.14-1.07 1.72-.96 3.36-2.38 4.93-4.29 1.24-1.5 2.4-3.08 3.52-4.7.09 2.19.47 4.02 1.15 5.49.9 1.95 2.19 3.36 3.86 4.21 1.66.86 3.36 1.33 5.07 1.43 1.43.09 2.9-.21 4.43-.93 1.52-.71 3.02-1.71 4.5-3s2.93-2.84 4.36-4.64c1.43-1.81 2.71-3.86 3.85-6.14 0 .57.1 1.57.29 3 .19 1.43.53 2.93 1 4.5.47 1.57 1.19 3.05 2.14 4.43.95 1.38 2.24 2.26 3.86 2.65.47.09 1.14.14 2 .14.95-.1 1.81-.31 2.57-.64.76-.34 1.43-.74 2-1.22.19-.09.31-.17.36-.21.04-.05.16-.12.36-.21.95-.76 1.9-1.71 2.86-2.86.48-.57.95-1.19 1.43-1.86.79-.96 1.53-1.97 2.25-2.99.25 1.31.67 2.54 1.28 3.7.95 1.81 2.4 3.33 4.35 4.57 1.95 1.24 4.69 2.05 8.21 2.43 1.43.19 2.71.19 3.85 0 3.81-.19 7.12-1.36 9.93-3.5 2.81-2.14 5.16-4.31 7.07-6.5.38-.48.69-.88.93-1.22.24-.33.45-.64.65-.93 1.43-2 2.33-3.48 2.71-4.43.95-1.52 1.74-2.93 2.36-4.21.62-1.29 1.17-2.4 1.64-3.36.19-.48.29-.9.29-1.29-.07-.33-.14-.67-.28-.95m-29.28 2.99c.24-.57.54-1.23.93-2 1.43-3.24 2.76-5.81 4-7.71 1.24-1.9 2.36-3.36 3.36-4.36 1-1 1.88-1.66 2.64-2 .76-.34 1.38-.5 1.86-.5.19 0 .54.17 1.07.5.52.33.69 1.36.5 3.07-.09.96-.45 2.17-1.07 3.64-.62 1.48-1.55 2.98-2.78 4.5-1.24 1.52-2.76 2.9-4.57 4.14-1.81 1.24-4 2.05-6.57 2.43.17-.56.39-1.13.63-1.71m-129.85 0c.23-.57.54-1.23.93-2 1.43-3.24 2.76-5.81 4-7.71 1.24-1.9 2.36-3.36 3.36-4.36 1-1 1.88-1.66 2.64-2 .76-.34 1.38-.5 1.86-.5.19 0 .55.17 1.07.5.52.33.69 1.36.5 3.07-.09.96-.45 2.17-1.07 3.64-.62 1.48-1.55 2.98-2.79 4.5s-2.76 2.9-4.57 4.14c-1.81 1.24-4 2.05-6.57 2.43.19-.56.4-1.13.64-1.71m97.18-9.42c-.14 1.43-.65 3.29-1.5 5.57-1.52 3.81-3.09 7.14-4.71 10-1.43 2.48-3 4.69-4.71 6.64-1.71 1.95-3.48 2.78-5.28 2.5-.95-.19-1.57-.86-1.86-2-.19-1.05-.09-2.62.29-4.71s1.48-5.14 3.29-9.14c1.81-3.9 3.43-6.86 4.85-8.86 1.43-2 2.69-3.43 3.78-4.28 1.09-.86 1.97-1.31 2.64-1.36.66-.05 1.09-.02 1.28.07.29.1.62.29 1 .57.38.29.66.83.85 1.64.2.81.23 1.93.08 3.36M85.42 53.68c1.16.92 6.72.11 7.24-1.15.05-.13-2.98-1.54-3.62-2.42 0 0-.92.32-1.76.38 0-.01-1.95 3.11-1.86 3.19M208.02 56.86c.76.57 1.58 1.07 2.44 1.5.86.43 1.67.67 2.43.72.76.05 1.39-.22 1.86-.79 1.24-1.62 2.22-2.91 2.94-3.87.72-.95 1.27-1.72 1.64-2.29.58-1.05.74-2.17.51-3.37a10.74 10.74 0 0 0-1.29-3.36c-.62-1.05-1.34-2.01-2.15-2.87-.81-.86-1.51-1.48-2.08-1.86-.67-.48-1.24-.64-1.72-.5s-.95.41-1.43.79c-.48.38-.96.91-1.44 1.57l-.86 1.29c-.29.48-.64 1-1.07 1.57-.43.57-.89 1.24-1.36 2-.48.86-.91 2.08-1.29 3.65-.38 1.58-.05 2.94 1 4.08.48.6 1.11 1.17 1.87 1.74M101.98 35.09s.21.32.03.54l3.65 1.05c.28-1.09.12-1.98-.35-2.97-.61-1.28-1.77-2.28-3.36-2.9-3.79-1.45-9.67-.69-15.35 1.98-4.46 2.11-7.92 4.96-9.88 7.83l-.51.89c-.9 1.58-1.29 3.11-1.15 4.55 0 0 .15 1.32.35 1.75.54 1.14 1.53 2.04 2.86 2.66.94-.29 1.7-1.08 1.91-2.11.07-.33.04-.66 0-.98-.6-.32-1.07-.7-1.3-1.21-.58-1.23-.02-3.02 1.54-4.92 1.72-2.09 4.41-4.06 7.56-5.55 4.6-2.17 9.35-2.89 12.11-1.83.87.34 1.68.75 1.89 1.22M80.51 34.36s-.07-.18 0 0c2.11-2.43 7.62-4.79 9.14-4.77l-.03-.02c-1.63-.95-2.57-1.52-3.52-2.09-1.34-.76-2.32-.82-3.44-.36-1.01.42-1.59 1.18-2.06 2.32-.81 2.47-.28 4.45-.09 4.92"/><path class="st1" d="M77.63 61.03 91.79 42.1l-9.43.61c-.17.24-.39.48-.54.72-.63.99-.92 1.79-1.02 2.4-.02.12-.03.23-.04.34l.06.55c.94.74 1.55 1.87 1.45 3.16-.15 2.05-1.93 3.37-3.99 3.43-4.22.12-7.89-6.46-5.08-10.01l-5 .32-13.56-17.83-7.07 22.04-22.54 7.91 19.22 12.11-.37 22.71L62.83 76l22.32 6.12-7.52-21.09z"/><path class="st1" d="M277.05 82.36c-.14-.29-.5-.52-1.07-.71-1.05-.1-1.91.19-2.58.86-.38.38-.62.76-.72 1.14-.48 1.05-1.14 2.34-2.01 3.87-.86 1.53-1.81 3.01-2.87 4.44-.09.1-.43.53-1 1.29a5.1 5.1 0 0 0-.5.57 5.1 5.1 0 0 1-.5.57c-.76.86-1.64 1.74-2.65 2.65-1 .91-2.15 1.72-3.44 2.44s-2.7 1.26-4.22 1.65c-1.53.38-3.15.48-4.87.29l-.14-.14h-.14c-.48 0-.91-.09-1.29-.29-1.82-.67-2.92-1.77-3.3-3.29-.38-1.53-.48-3.1-.28-4.73 4.68-.86 8.43-2.26 11.24-4.22 2.81-1.96 4.99-4.03 6.52-6.23 1.53-2.2 2.57-4.37 3.15-6.52.57-2.15.91-3.89 1-5.23.09-.76.12-1.43.07-2.01-.05-.57-.12-1.1-.22-1.57-.19-1.43-.64-2.79-1.36-4.08-.72-1.29-1.89-2.27-3.51-2.93-1.72-.67-3.7-.86-5.94-.58-2.25.29-4.51 1.22-6.81 2.8-2.29 1.57-4.58 3.86-6.87 6.87-2.29 3.01-4.35 6.95-6.16 11.82-.75 1.97-1.34 3.82-1.82 5.59-.16.3-.33.61-.5.93-.91 1.67-1.94 3.27-3.08 4.8-1.15 1.53-2.32 2.77-3.51 3.72-1.2.95-2.37 1.29-3.51 1-.77-.28-1.24-.96-1.44-2.01v-.57c-.1-.76-.12-1.69-.07-2.79.04-1.1.26-2.41.64-3.94 1.05-4.68 2.22-9.07 3.51-13.18 1.29-4.1 2.75-7.97 4.37-11.6 2.29-5.54 4.72-10.48 7.3-14.82 2.58-4.35 4.97-8.14 7.16-11.39 2.19-3.25 4.13-5.9 5.8-7.95s2.74-3.51 3.22-4.37c.66-1.15.88-2.41.64-3.8-.24-1.38-.71-2.7-1.43-3.94-.71-1.24-1.55-2.34-2.5-3.3-.96-.95-1.72-1.62-2.29-2-.67-.48-1.31-.62-1.93-.43-.62.19-1.17.48-1.65.86-.57.38-1.15.91-1.72 1.57-3.06 4.39-6.16 9.45-9.31 15.18-2.67 4.87-5.61 10.74-8.81 17.62-3.2 6.87-6.23 14.51-9.09 22.91-.57 1.63-1.05 3.29-1.44 5.02-.38 1.53-.79 3.27-1.21 5.23-.44 1.96-.74 3.99-.93 6.09v.04c-.36.65-.75 1.38-1.18 2.17-.91 1.68-1.93 3.25-3.08 4.73-1.15 1.48-2.32 2.72-3.51 3.72s-2.32 1.31-3.37.93c-.95-.28-1.48-1.05-1.57-2.29-.1-1.24.09-2.74.57-4.51.47-1.77 1.14-3.67 2.01-5.73.85-2.05 1.74-4.01 2.65-5.87.91-1.86 1.75-3.51 2.51-4.94.76-1.43 1.34-2.48 1.72-3.15.57-1.05.94-1.95 1.08-2.72.14-.76.17-1.38.07-1.86-.09-.57-.33-1.05-.72-1.43-1.24-1.43-2.58-2.58-4.01-3.43-1.43-.86-2.57-1.44-3.44-1.72-.48-.19-.91-.14-1.29.14-.39.29-.72.62-1.01 1-.38.39-.67.86-.86 1.43-3.44 7.35-6.07 14.04-7.88 20.05-.76 2.58-1.41 5.18-1.94 7.81-.2 1.01-.35 1.98-.46 2.93-1.05 1.32-2.13 2.45-3.22 3.37-1.19 1-2.36 1.31-3.51.93-.96-.28-1.46-1.05-1.5-2.29-.05-1.24.17-2.74.65-4.51.48-1.77 1.14-3.67 2-5.73.86-2.05 1.74-4.01 2.65-5.87.91-1.86 1.75-3.51 2.51-4.94.76-1.43 1.33-2.48 1.72-3.15.57-1.05.93-1.95 1.07-2.72.14-.76.16-1.38.07-1.86-.09-.57-.34-1.05-.72-1.43-1.05-1.24-2.22-2.27-3.51-3.08-1.29-.81-2.37-1.41-3.23-1.79-1.72-.76-3.6-.5-5.66.79-2.05 1.29-4.18 3.18-6.37 5.66-2.2 2.49-4.37 5.33-6.52 8.52-.92 1.38-1.81 2.75-2.68 4.11.3-.88.56-1.73.78-2.54.48-1.76.79-3.24.93-4.44.1-.85.17-1.47.2-1.86.14-.34.28-.68.41-1.01 1.81-4.34 3.15-7.47 4.01-9.38 2.29-4.96 4.63-9.43 7.02-13.39 2.39-3.96 4.61-7.4 6.66-10.31s3.85-5.3 5.38-7.16c1.52-1.86 2.53-3.22 3-4.08.67-1.24.88-2.53.65-3.87-.24-1.34-.71-2.62-1.43-3.87-.72-1.24-1.55-2.34-2.51-3.29-.96-.95-1.72-1.67-2.29-2.15-.67-.48-1.31-.62-1.94-.43-.62.19-1.17.48-1.64.86-.57.38-1.15.91-1.72 1.57-2.67 3.92-5.44 8.4-8.3 13.46-2.49 4.3-5.18 9.48-8.09 15.54-2.91 6.07-5.75 12.87-8.52 20.41-1.05 2.48-2.24 5.59-3.58 9.31-.28.86-.65 1.94-1.07 3.22-.43 1.29-.84 2.6-1.22 3.94-.48 1.72-1.03 3.65-1.65 5.8-.29 1.02-.57 2.05-.83 3.11-2.04 3.1-4.19 5.65-6.44 7.63-3.19 2.81-6.27 4.89-9.23 6.23-2.96 1.34-5.64 2.13-8.02 2.36-2.39.24-4.2.31-5.44.22-.77 0-1.96-.14-3.59-.43-1.62-.28-3.31-.88-5.08-1.79s-3.39-2.22-4.87-3.94c-1.48-1.72-2.44-3.96-2.86-6.73-.43-2.77-.17-6.18.79-10.24.95-4.06 3-8.9 6.16-14.54 1.33-2.58 2.79-5.01 4.37-7.3 1.57-2.29 3.17-4.49 4.8-6.59 2.77-.29 5.34-.67 7.73-1.15 2.39-.48 4.54-.95 6.45-1.43 2.2-.48 4.25-1 6.16-1.57 4.77-1.53 8.81-3.25 12.1-5.15 3.3-1.91 6.04-3.87 8.24-5.87.38-.38.76-.74 1.14-1.08.38-.33.71-.69 1-1.07.09-.19.29-.43.57-.72 1.91-2.48 3.24-5.01 4.01-7.59.76-2.58.76-4.82 0-6.73-.57-1.34-1.44-2.34-2.58-3.01-1.05-.57-2.25-.91-3.58-1-1.34-.09-2.43-.09-3.29 0-1.34.19-3.46.62-6.37 1.29-2.92.67-6.3 1.86-10.17 3.58s-8.02 4.06-12.46 7.02c-4.44 2.96-8.86 6.83-13.25 11.6-3.34-.57-6.42-1.31-9.24-2.22-2.82-.91-5.37-1.89-7.66-2.94-2.11.13-10.23 2.86-12.64 5.6l11.52-.42s-6.93 8.2-6.39 8.56c1.96 1.34 4.15 2.34 6.59 3.01 2.43.67 4.99 1.14 7.66 1.43a54.895 54.895 0 0 0-2.94 4.8c-.91 1.67-1.84 3.42-2.79 5.23-3.72 7.45-6.09 13.94-7.09 19.48-1 5.54-.98 10.24.07 14.11 1.05 3.87 2.91 6.97 5.59 9.31 2.67 2.34 5.75 4.03 9.24 5.08 3.48 1.05 7.21 1.55 11.17 1.51 3.96-.05 7.75-.55 11.39-1.51.76-.19 1.48-.38 2.15-.57.66-.19 1.38-.43 2.15-.71 3.15-1.14 6.01-2.53 8.59-4.15 1.31-.83 2.55-1.66 3.72-2.51-.02.47-.04.92-.04 1.36 0 .09.03.17.08.22.05.05.07.12.07.21.57.76 1.46 1.6 2.65 2.51 1.2.91 2.89 1.45 5.09 1.65.19 0 .45-.05.79-.14.33-.1.55-.43.65-1 2.19-6.11 4.59-11.48 7.16-16.11 2.58-4.63 5.02-8.52 7.31-11.67 2.67-3.72 5.35-6.92 8.02-9.6h.15c-1.24 2.96-2.46 6.28-3.65 9.95-1.19 3.67-2.05 7.26-2.58 10.74-.53 3.49-.5 6.61.07 9.38.57 2.77 2 4.72 4.3 5.87.86.29 1.81.48 2.86.57.86.09 1.82.07 2.86-.07 1.05-.14 2.1-.55 3.15-1.22 1.72-.95 3.39-2.36 5.02-4.22.31-.36.61-.75.91-1.12.2.82.44 1.61.77 2.34.76 1.72 2.01 2.96 3.72 3.73.86.29 1.81.48 2.87.57.85.09 1.81.07 2.86-.07 1.05-.14 2.1-.55 3.15-1.22 1.72-.95 3.36-2.36 4.94-4.22 1.57-1.86 3.06-3.85 4.44-5.94.29-.44.55-.87.82-1.31.15 1.41.36 2.76.65 4.03a18.72 18.72 0 0 0 2.15 5.08c.95 1.57 2.33 2.55 4.15 2.94.95.19 1.62.24 2 .14.96-.1 1.84-.31 2.65-.65.81-.33 1.51-.69 2.08-1.07l.58-.57c.48-.38.97-.83 1.5-1.36l1.51-1.51c.48-.57.95-1.15 1.43-1.72.68-.91 1.33-1.83 1.96-2.76.19 1.7.66 3.29 1.44 4.76.96 1.82 2.41 3.34 4.37 4.58 1.96 1.24 4.7 2.05 8.23 2.44 1.44.19 2.72.19 3.87 0 3.82-.19 7.14-1.36 9.96-3.51 2.82-2.15 5.18-4.32 7.09-6.52.38-.48.69-.88.93-1.22.24-.33.45-.64.64-.93 1.43-2.01 2.34-3.48 2.72-4.44a43.34 43.34 0 0 0 2.36-4.23c.62-1.29 1.17-2.41 1.65-3.36.19-.48.29-.91.29-1.29-.03-.4-.1-.73-.25-1.02m-29.36 3c.24-.57.55-1.24.93-2.01 1.44-3.24 2.77-5.82 4.01-7.73 1.24-1.91 2.36-3.37 3.36-4.37s1.89-1.67 2.65-2.01c.76-.33 1.38-.5 1.86-.5.19 0 .55.17 1.07.5.53.34.69 1.36.5 3.08-.1.96-.45 2.17-1.07 3.65-.62 1.48-1.55 2.99-2.79 4.51-1.24 1.53-2.77 2.91-4.58 4.15-1.81 1.24-4.01 2.06-6.59 2.43.2-.55.41-1.12.65-1.7m-107.63-53.7c3.44-2.39 6.49-4.3 9.17-5.73 2.67-1.43 4.77-2.36 6.3-2.79 1.53-.43 2.24-.4 2.15.07 0 .77-.24 1.55-.72 2.36-.48.81-1 1.57-1.58 2.29a42.633 42.633 0 0 1-2.43 2.79c-1.91 1.81-4.37 3.51-7.38 5.08-3.01 1.57-6.71 2.84-11.1 3.79-.86.2-1.72.36-2.58.5-.86.14-1.72.31-2.58.5 3.74-3.51 7.31-6.48 10.75-8.86m-43.21 3.53c.04.01.05.02 0 0m-.12-.07h.01c-.01.01-.01.01-.01 0"/></svg>